<svg xmlns="http://www.w3.org/2000/svg" xmlns:xlink="http://www.w3.org/1999/xlink" width="148.754" height="151.305" viewBox="0 0 148.754 151.305"><defs><clipPath id="a"><rect width="148.754" height="151.305" fill="none"/></clipPath></defs><g clip-path="url(#a)"><path d="M144.1,222.587a4.626,4.626,0,0,0-4.532,2.9,4.307,4.307,0,0,0-4.317-2.9,4.622,4.622,0,0,0-4.22,2.3v-2.135h-4.244v12.974h4.244v-6.4c0-1.7.959-2.9,2.469-2.925a2.087,2.087,0,0,1,2.135,2.374v6.955H139.9v-6.4c0-1.7.935-2.9,2.446-2.925a2.087,2.087,0,0,1,2.134,2.374v6.955h4.269v-8.178c0-3.046-1.847-4.964-4.652-4.964m-24.844.167v6.4c0,1.7-.911,2.9-2.423,2.925a2.069,2.069,0,0,1-2.086-2.35v-6.979H110.48v8.2c0,3.021,1.822,4.964,4.628,4.964a4.579,4.579,0,0,0,4.149-2.3v2.111h4.268V222.755Zm-12.135,4.1,1.439-2.782a10.535,10.535,0,0,0-5.4-1.511c-3.046,0-5.324,1.487-5.324,4.2,0,4.485,6.691,3.6,6.691,5.372,0,.528-.576.791-1.367.791a8.428,8.428,0,0,1-4.6-1.607l-1.343,2.758a9.564,9.564,0,0,0,5.851,1.847c3.166,0,5.492-1.511,5.492-4.173.024-4.508-6.787-3.693-6.787-5.4,0-.552.5-.816,1.223-.816a9.841,9.841,0,0,1,4.125,1.319M89.161,232.42c-1.631,0-2.757-1.295-2.757-3.213s1.127-3.238,2.757-3.238c1.679,0,2.806,1.319,2.806,3.238s-1.127,3.213-2.806,3.213m1.055-9.808a4.629,4.629,0,0,0-3.813,1.823v-1.679H82.134v17.626H86.4V234.05a4.749,4.749,0,0,0,3.909,1.822c3.6,0,5.947-2.614,5.947-6.571,0-4.029-2.422-6.691-6.043-6.691M74.365,235.729h4.388V218.918H74.365Zm-8.2-12.686a4.883,4.883,0,0,0-4.988,3.286,4.283,4.283,0,0,0-4.532-3.286,4.852,4.852,0,0,0-4.82,2.926v-2.854H49.976v12.614h1.846v-6.211c0-2.734,1.559-4.628,4.149-4.7a3.262,3.262,0,0,1,3.5,3.622v7.29h1.894v-6.211c0-2.734,1.511-4.628,4.124-4.7a3.274,3.274,0,0,1,3.5,3.622v7.29h1.87v-7.77c0-3.07-1.751-4.917-4.7-4.917M36.45,228.631a4.26,4.26,0,0,1,4.413-4.029,3.981,3.981,0,0,1,4.22,4.029Zm4.413-5.588a6.38,6.38,0,0,0,.024,12.758,6.709,6.709,0,0,0,5.084-2.086l-1.031-1.079a5.293,5.293,0,0,1-3.909,1.607,4.459,4.459,0,0,1-4.58-4.124H46.763c.192-4.269-1.823-7.075-5.9-7.075M28.824,225.92v-2.806h-1.87v12.614h1.87v-6.715a4.2,4.2,0,0,1,4.533-4.149v-1.823a4.722,4.722,0,0,0-4.533,2.878M17.266,224.7a4.741,4.741,0,0,1,0,9.473,4.741,4.741,0,0,1,0-9.473m0-1.655a6.379,6.379,0,1,0,0,12.758,6.379,6.379,0,1,0,0-12.758M0,218.942v16.787H9.28v-1.774H1.919V218.942Z" transform="translate(0 -106.125)" fill="#e6e6e6"/><path d="M142.326,278.043a2.019,2.019,0,0,1,2.091-1.91,1.887,1.887,0,0,1,2,1.91Zm2.091-2.649a3.024,3.024,0,0,0,.012,6.048,3.18,3.18,0,0,0,2.41-.989l-.489-.512a2.509,2.509,0,0,1-1.853.761,2.113,2.113,0,0,1-2.171-1.955h4.888c.091-2.023-.864-3.354-2.8-3.354m-9.319,1.364v-1.33h-.886v5.979h.886v-3.183a1.991,1.991,0,0,1,2.148-1.967v-.865a2.239,2.239,0,0,0-2.148,1.364m-10.911,1.285a2.019,2.019,0,0,1,2.091-1.91,1.888,1.888,0,0,1,2,1.91Zm2.091-2.649a3.024,3.024,0,0,0,.012,6.048,3.181,3.181,0,0,0,2.41-.989l-.489-.512a2.509,2.509,0,0,1-1.853.761,2.113,2.113,0,0,1-2.171-1.955h4.888c.091-2.023-.864-3.354-2.8-3.354m-10.228,0a2.345,2.345,0,0,0-2.331,1.376v-3.8h-.887v8.434h.887v-2.933a2,2,0,0,1,2.024-2.228,1.563,1.563,0,0,1,1.694,1.705v3.456h.887v-3.683a2.114,2.114,0,0,0-2.274-2.33m-14.549,0a2.365,2.365,0,0,0-2.319,1.353v-1.318H98.3v5.979h.887V278.2a1.961,1.961,0,0,1,2.012-1.955,1.563,1.563,0,0,1,1.694,1.705v3.456h.887v-3.683a2.114,2.114,0,0,0-2.274-2.33M89.817,280.7c-.841,0-1.376-.443-1.376-1.1s.522-.978,1.523-.978h1.866v.728a1.923,1.923,0,0,1-2.014,1.353m2.891.7-.012-3.956c-.011-1.273-.832-2.058-2.311-2.058a4.022,4.022,0,0,0-2.444.807l.375.625a3.256,3.256,0,0,1,1.9-.694c1.059,0,1.6.534,1.6,1.409v.376H89.851c-1.41.011-2.24.671-2.24,1.716a1.848,1.848,0,0,0,2.035,1.807,2.585,2.585,0,0,0,2.2-.966v.932Zm-13.143-.989a2.145,2.145,0,1,1,2.046-2.137,2.028,2.028,0,0,1-2.046,2.137m2.046-4.991v1.216a2.376,2.376,0,0,0-2.228-1.251,2.881,2.881,0,0,0,.023,5.753,2.359,2.359,0,0,0,2.205-1.251v.91a1.982,1.982,0,0,1-2.16,2.069,3.07,3.07,0,0,1-2.012-.762l-.409.648a3.97,3.97,0,0,0,2.456.875,2.748,2.748,0,0,0,3.013-2.853v-5.354Zm-12.537.75a2.247,2.247,0,1,1-2.148,2.239,2.108,2.108,0,0,1,2.148-2.239m0-.785a3.024,3.024,0,1,0,3.035,3.013,2.895,2.895,0,0,0-3.035-3.013m-9.148,6.014h.886v-8.434h-.886Zm-5.659-4.8.341-.682a3.558,3.558,0,0,0-1.91-.545c-1.091,0-2.08.489-2.08,1.626-.012,2.115,3.342,1.375,3.308,2.83-.012.6-.58.875-1.284.875a3.032,3.032,0,0,1-1.989-.762l-.341.648a3.38,3.38,0,0,0,2.3.841c1.148,0,2.194-.523,2.194-1.694,0-2.148-3.342-1.456-3.342-2.808,0-.568.512-.807,1.182-.807a3.156,3.156,0,0,1,1.626.477" transform="translate(-24.389 -132.33)" fill="#e6e6e6"/><path d="M148.6,73.116C148.6,32.735,116.43,0,76.739,0S4.873,32.735,4.873,73.116H20.589c0-31.284,24.069-58.374,55.745-58.374,19.256,0,36.233,10.224,46.247,25.77-14.831-16-44.792-20.986-63-12.023,10.1,27.951,41.527,44.627,72.5,44.627Z" transform="translate(-2.362)" fill="#e6e6e6" fill-rule="evenodd"/></g></svg>