<svg xmlns="http://www.w3.org/2000/svg" xmlns:xlink="http://www.w3.org/1999/xlink" width="148.754" height="163.003" viewBox="0 0 148.754 163.003"><defs><clipPath id="a"><rect width="148.754" height="163.003" fill="none"/></clipPath></defs><g clip-path="url(#a)"><path d="M144.1,245.291a4.627,4.627,0,0,0-4.532,2.9,4.306,4.306,0,0,0-4.317-2.9,4.623,4.623,0,0,0-4.22,2.3v-2.135h-4.245v12.974h4.245v-6.4c0-1.7.959-2.9,2.469-2.925a2.087,2.087,0,0,1,2.135,2.374v6.955H139.9v-6.4c0-1.7.935-2.9,2.446-2.925a2.087,2.087,0,0,1,2.134,2.374v6.955h4.269v-8.178c0-3.046-1.847-4.964-4.652-4.964m-24.844.168v6.4c0,1.7-.911,2.9-2.423,2.926a2.069,2.069,0,0,1-2.086-2.35v-6.979H110.48v8.2c0,3.021,1.822,4.964,4.628,4.964a4.581,4.581,0,0,0,4.149-2.3v2.111h4.268V245.459Zm-12.135,4.1,1.439-2.782a10.534,10.534,0,0,0-5.4-1.511c-3.046,0-5.324,1.487-5.324,4.2,0,4.485,6.691,3.6,6.691,5.372,0,.528-.576.791-1.366.791a8.428,8.428,0,0,1-4.605-1.607l-1.343,2.758a9.564,9.564,0,0,0,5.851,1.847c3.166,0,5.492-1.511,5.492-4.173.024-4.508-6.787-3.693-6.787-5.4,0-.551.5-.815,1.223-.815a9.841,9.841,0,0,1,4.125,1.319m-17.962,5.564c-1.631,0-2.757-1.3-2.757-3.213s1.127-3.238,2.757-3.238c1.679,0,2.806,1.319,2.806,3.238s-1.127,3.213-2.806,3.213m1.055-9.808a4.63,4.63,0,0,0-3.813,1.823v-1.679H82.135v17.626H86.4v-6.331a4.749,4.749,0,0,0,3.909,1.822c3.6,0,5.947-2.614,5.947-6.571,0-4.029-2.422-6.691-6.043-6.691M74.365,258.433h4.389V241.622H74.365Zm-8.2-12.686a4.882,4.882,0,0,0-4.988,3.286,4.283,4.283,0,0,0-4.532-3.286,4.851,4.851,0,0,0-4.82,2.926v-2.854H49.976v12.614h1.846v-6.211c0-2.734,1.559-4.628,4.149-4.7a3.262,3.262,0,0,1,3.5,3.622v7.29h1.894v-6.211c0-2.734,1.511-4.628,4.125-4.7a3.273,3.273,0,0,1,3.5,3.622v7.29h1.871v-7.77c0-3.07-1.751-4.917-4.7-4.917M36.45,251.334a4.26,4.26,0,0,1,4.412-4.029,3.981,3.981,0,0,1,4.221,4.029Zm4.412-5.588a6.38,6.38,0,0,0,.024,12.758,6.709,6.709,0,0,0,5.084-2.086l-1.031-1.079a5.3,5.3,0,0,1-3.909,1.607,4.459,4.459,0,0,1-4.58-4.125H46.763c.192-4.269-1.823-7.075-5.9-7.075m-12.038,2.878v-2.806h-1.87v12.614h1.87v-6.715a4.2,4.2,0,0,1,4.533-4.149v-1.823a4.722,4.722,0,0,0-4.533,2.878M17.266,247.4a4.741,4.741,0,0,1,0,9.472,4.741,4.741,0,0,1,0-9.472m0-1.655a6.379,6.379,0,1,0,0,12.758,6.379,6.379,0,1,0,0-12.758M0,241.646v16.787H9.28v-1.774H1.918V241.646Z" transform="translate(0 -117.132)" fill="#e6e6e6"/><path d="M142.326,300.746a2.02,2.02,0,0,1,2.092-1.909,1.887,1.887,0,0,1,2,1.909Zm2.092-2.648a3.024,3.024,0,0,0,.012,6.047,3.18,3.18,0,0,0,2.41-.989l-.489-.512a2.512,2.512,0,0,1-1.853.762,2.114,2.114,0,0,1-2.171-1.956h4.888c.091-2.023-.864-3.353-2.8-3.353m-9.319,1.364v-1.33h-.887v5.979h.887v-3.183a1.991,1.991,0,0,1,2.148-1.967V298.1a2.237,2.237,0,0,0-2.148,1.364m-10.911,1.284a2.019,2.019,0,0,1,2.091-1.909,1.888,1.888,0,0,1,2,1.909Zm2.091-2.648a3.024,3.024,0,0,0,.012,6.047,3.181,3.181,0,0,0,2.41-.989l-.489-.512a2.511,2.511,0,0,1-1.853.762,2.114,2.114,0,0,1-2.171-1.956h4.888c.091-2.023-.864-3.353-2.8-3.353m-10.228,0a2.344,2.344,0,0,0-2.331,1.375v-3.8h-.887v8.434h.887v-2.933a2,2,0,0,1,2.024-2.228,1.563,1.563,0,0,1,1.694,1.705v3.456h.887v-3.683a2.113,2.113,0,0,0-2.273-2.33m-14.549,0a2.363,2.363,0,0,0-2.319,1.353v-1.319H98.3v5.979h.887v-3.206a1.961,1.961,0,0,1,2.012-1.955,1.563,1.563,0,0,1,1.694,1.705v3.456h.887v-3.683a2.113,2.113,0,0,0-2.274-2.33m-11.684,5.309c-.841,0-1.375-.444-1.375-1.1s.523-.977,1.523-.977h1.866v.727a1.923,1.923,0,0,1-2.014,1.354m2.891.7-.012-3.956c-.011-1.273-.832-2.057-2.311-2.057a4.021,4.021,0,0,0-2.444.807l.375.625a3.253,3.253,0,0,1,1.9-.693c1.059,0,1.6.534,1.6,1.409v.376H89.851c-1.41.011-2.24.671-2.24,1.716a1.848,1.848,0,0,0,2.035,1.807,2.584,2.584,0,0,0,2.2-.966v.932Zm-13.143-.989a2.145,2.145,0,1,1,2.046-2.137,2.028,2.028,0,0,1-2.046,2.137m2.046-4.99v1.216a2.374,2.374,0,0,0-2.228-1.25,2.881,2.881,0,0,0,.023,5.752,2.36,2.36,0,0,0,2.205-1.251v.91a1.982,1.982,0,0,1-2.159,2.069,3.073,3.073,0,0,1-2.012-.762l-.409.648a3.967,3.967,0,0,0,2.456.875,2.748,2.748,0,0,0,3.013-2.853v-5.354Zm-12.537.75a2.247,2.247,0,1,1-2.148,2.239,2.108,2.108,0,0,1,2.148-2.239m0-.784a3.024,3.024,0,1,0,3.035,3.013,2.895,2.895,0,0,0-3.035-3.013m-9.149,6.013h.887v-8.434h-.887Zm-5.659-4.8.341-.682a3.559,3.559,0,0,0-1.91-.546c-1.091,0-2.08.489-2.08,1.626-.012,2.115,3.342,1.375,3.308,2.83-.012.6-.58.875-1.284.875a3.035,3.035,0,0,1-1.989-.762l-.341.648a3.38,3.38,0,0,0,2.3.841c1.148,0,2.194-.523,2.194-1.694,0-2.148-3.342-1.456-3.342-2.808,0-.568.512-.807,1.182-.807a3.156,3.156,0,0,1,1.626.477" transform="translate(-24.389 -143.336)" fill="#e6e6e6"/><path d="M95.882,63.619c16.512,0,16.539-24.692,0-24.692-16.856,0-16.674,24.692,0,24.692m-6.7-42.736c9.306,0,14.753,4.2,18.837,8.852V1.363A76.519,76.519,0,0,0,93.291,0H56.557V95.237h36.19c34.285,0,54.284-20.408,54.284-47.89v-.273c0-15.319-6.13-28.186-17.446-36.574V80.3H108.024V72.129c-4.2,5.107-9.532,9.533-18.723,9.533-36.049,0-36.094-60.779-.114-60.779" transform="translate(-27.417 0)" fill="#e6e6e6" fill-rule="evenodd"/></g></svg>