<svg xmlns="http://www.w3.org/2000/svg" xmlns:xlink="http://www.w3.org/1999/xlink" width="135.736" height="154.048" viewBox="0 0 135.736 154.048"><defs><clipPath id="a"><rect width="135.736" height="154.048" fill="none"/></clipPath></defs><g clip-path="url(#a)"><path d="M131.491,256.263a4.221,4.221,0,0,0-4.136,2.647,3.93,3.93,0,0,0-3.939-2.647,4.218,4.218,0,0,0-3.851,2.1v-1.948h-3.873v11.839h3.873v-5.843a2.371,2.371,0,0,1,2.254-2.669,1.9,1.9,0,0,1,1.947,2.166v6.346h3.9v-5.843c0-1.554.854-2.647,2.232-2.669a1.9,1.9,0,0,1,1.947,2.166v6.346h3.9v-7.462c0-2.779-1.685-4.529-4.245-4.529m-22.67.153v5.843c0,1.553-.832,2.647-2.211,2.669a1.888,1.888,0,0,1-1.9-2.144v-6.368h-3.9V263.9c0,2.757,1.663,4.529,4.224,4.529a4.177,4.177,0,0,0,3.786-2.1v1.926h3.9V256.416Zm-11.072,3.742,1.313-2.538a9.614,9.614,0,0,0-4.924-1.379c-2.779,0-4.858,1.357-4.858,3.83,0,4.092,6.1,3.282,6.1,4.9,0,.482-.525.722-1.247.722a7.69,7.69,0,0,1-4.2-1.466l-1.225,2.517a8.727,8.727,0,0,0,5.339,1.685c2.889,0,5.012-1.378,5.012-3.808.022-4.114-6.194-3.37-6.194-4.923,0-.5.46-.744,1.116-.744a8.981,8.981,0,0,1,3.764,1.2m-16.39,5.077c-1.488,0-2.516-1.181-2.516-2.932s1.029-2.954,2.516-2.954c1.532,0,2.56,1.2,2.56,2.954s-1.028,2.932-2.56,2.932m.963-8.95a4.225,4.225,0,0,0-3.479,1.663v-1.532h-3.9V272.5h3.9v-5.777a4.334,4.334,0,0,0,3.567,1.663c3.282,0,5.427-2.385,5.427-6,0-3.676-2.21-6.105-5.515-6.105m-14.464,11.97h4v-15.34h-4Zm-7.484-11.576a4.455,4.455,0,0,0-4.552,3,3.909,3.909,0,0,0-4.136-3,4.427,4.427,0,0,0-4.4,2.67v-2.6H45.6v11.51h1.685v-5.668c0-2.495,1.422-4.223,3.786-4.289a2.977,2.977,0,0,1,3.195,3.3v6.652H56v-5.668c0-2.495,1.378-4.223,3.763-4.289a2.987,2.987,0,0,1,3.2,3.3v6.652h1.707v-7.09c0-2.8-1.6-4.487-4.289-4.487m-27.112,5.1a3.887,3.887,0,0,1,4.026-3.676,3.633,3.633,0,0,1,3.851,3.676Zm4.026-5.1a5.822,5.822,0,0,0,.022,11.642,6.121,6.121,0,0,0,4.639-1.9l-.941-.985A4.829,4.829,0,0,1,37.44,266.9a4.068,4.068,0,0,1-4.18-3.763H42.67c.175-3.9-1.663-6.456-5.383-6.456M26.3,259.3v-2.56H24.6v11.51H26.3v-6.127a3.833,3.833,0,0,1,4.136-3.786v-1.663A4.308,4.308,0,0,0,26.3,259.3m-10.547-1.116a4.326,4.326,0,0,1,0,8.644,4.326,4.326,0,0,1,0-8.644m0-1.51a5.821,5.821,0,1,0,0,11.642,5.821,5.821,0,1,0,0-11.642M0,252.937v15.318H8.468v-1.619H1.751v-13.7Z" transform="translate(0 -134.01)" fill="#e6e6e6"/><path d="M134.274,311.6a1.843,1.843,0,0,1,1.908-1.743,1.722,1.722,0,0,1,1.826,1.743Zm1.908-2.417a2.76,2.76,0,0,0,.011,5.518,2.9,2.9,0,0,0,2.2-.9l-.446-.467a2.289,2.289,0,0,1-1.691.695,1.928,1.928,0,0,1-1.981-1.784h4.461c.083-1.846-.789-3.06-2.552-3.06m-8.5,1.245V309.21h-.809v5.456h.809v-2.9a1.817,1.817,0,0,1,1.96-1.794v-.789a2.043,2.043,0,0,0-1.96,1.245m-9.956,1.173a1.843,1.843,0,0,1,1.909-1.743,1.722,1.722,0,0,1,1.826,1.743Zm1.909-2.417a2.76,2.76,0,0,0,.01,5.518,2.9,2.9,0,0,0,2.2-.9l-.446-.467a2.289,2.289,0,0,1-1.691.695,1.928,1.928,0,0,1-1.981-1.784h4.46c.083-1.846-.788-3.06-2.551-3.06m-9.334,0a2.139,2.139,0,0,0-2.126,1.255V306.97h-.809v7.7h.809V311.99a1.829,1.829,0,0,1,1.846-2.033,1.426,1.426,0,0,1,1.545,1.556v3.153h.81v-3.361a1.929,1.929,0,0,0-2.075-2.126m-13.276,0a2.158,2.158,0,0,0-2.116,1.235v-1.2H94.1v5.456h.809v-2.925a1.79,1.79,0,0,1,1.836-1.784,1.426,1.426,0,0,1,1.545,1.556v3.153H99.1v-3.361a1.929,1.929,0,0,0-2.075-2.126M86.36,314.023c-.768,0-1.255-.4-1.255-1.006s.477-.892,1.39-.892h1.7v.664a1.755,1.755,0,0,1-1.838,1.235m2.638.643-.01-3.61c-.01-1.162-.759-1.878-2.109-1.878a3.669,3.669,0,0,0-2.23.737l.342.571a2.971,2.971,0,0,1,1.732-.633c.967,0,1.464.488,1.464,1.286v.343h-1.8c-1.286.01-2.043.612-2.043,1.566A1.686,1.686,0,0,0,86.2,314.7a2.358,2.358,0,0,0,2-.882v.85Zm-11.993-.9a1.957,1.957,0,1,1,1.867-1.95,1.851,1.851,0,0,1-1.867,1.95m1.867-4.554v1.11a2.168,2.168,0,0,0-2.033-1.141,2.629,2.629,0,0,0,.021,5.249,2.152,2.152,0,0,0,2.012-1.142v.83A1.808,1.808,0,0,1,76.9,316a2.8,2.8,0,0,1-1.836-.695l-.374.591a3.622,3.622,0,0,0,2.241.8,2.507,2.507,0,0,0,2.749-2.6V309.21Zm-11.439.685a2.05,2.05,0,1,1-1.96,2.043,1.924,1.924,0,0,1,1.96-2.043m0-.716a2.759,2.759,0,1,0,2.769,2.749,2.641,2.641,0,0,0-2.769-2.749m-8.348,5.487h.809v-7.7h-.809Zm-5.164-4.377.311-.622a3.247,3.247,0,0,0-1.743-.5c-1,0-1.9.446-1.9,1.483-.01,1.929,3.049,1.255,3.018,2.582-.01.55-.529.8-1.172.8a2.768,2.768,0,0,1-1.815-.695l-.311.591a3.085,3.085,0,0,0,2.1.767c1.047,0,2-.477,2-1.545,0-1.961-3.05-1.328-3.05-2.562,0-.519.467-.736,1.079-.736a2.877,2.877,0,0,1,1.483.435" transform="translate(-26.658 -162.651)" fill="#e6e6e6"/><path d="M217.478,10.506h0L210.993,0h25.886L223.935,20.966Z" transform="translate(-111.797 0)" fill="#e6e6e6"/><path d="M79.94,61.359c2.811-4.552-1.269,2.063,5.445-8.814l9.629,15.6C89.792,76.6,85.107,84.227,79.882,92.69L22.662,0H78.833l9.73,15.761H51.791Z" transform="translate(-12.008)" fill="#e6e6e6"/><path d="M149.113,46.715h-19.4l25.27,40.935,9.7-15.712-15.57-25.223Z" transform="translate(-68.73 -24.752)" fill="#e6e6e6"/><path d="M155.934,0h19.4l16.185,26.22-9.7,15.712Z" transform="translate(-82.623 0)" fill="#e6e6e6"/></g></svg>