<svg xmlns="http://www.w3.org/2000/svg" xmlns:xlink="http://www.w3.org/1999/xlink" width="140.128" height="157.782" viewBox="0 0 140.128 157.782"><defs><clipPath id="a"><rect width="140.128" height="157.782" fill="none"/></clipPath></defs><g clip-path="url(#a)"><path d="M135.745,253.8a4.358,4.358,0,0,0-4.27,2.733,4.057,4.057,0,0,0-4.066-2.733,4.354,4.354,0,0,0-3.976,2.169v-2.011h-4v12.222h4v-6.031c0-1.6.9-2.733,2.327-2.756a1.966,1.966,0,0,1,2.01,2.237v6.551h4.021v-6.031c0-1.6.881-2.733,2.3-2.756a1.967,1.967,0,0,1,2.011,2.237v6.551h4.021v-7.7c0-2.869-1.739-4.676-4.382-4.676m-23.4.158v6.032c0,1.6-.859,2.733-2.282,2.756a1.95,1.95,0,0,1-1.966-2.214v-6.574h-4.021v7.726c0,2.846,1.717,4.676,4.36,4.676a4.316,4.316,0,0,0,3.908-2.169v1.988h4.021V253.954Zm-11.43,3.863,1.356-2.62a9.925,9.925,0,0,0-5.083-1.424c-2.869,0-5.015,1.4-5.015,3.953,0,4.224,6.3,3.389,6.3,5.061,0,.5-.542.745-1.287.745a7.942,7.942,0,0,1-4.338-1.513l-1.265,2.6a9.012,9.012,0,0,0,5.512,1.74c2.982,0,5.174-1.424,5.174-3.931.022-4.247-6.394-3.479-6.394-5.083,0-.519.474-.768,1.152-.768a9.267,9.267,0,0,1,3.886,1.243m-16.921,5.241c-1.536,0-2.6-1.22-2.6-3.027s1.062-3.05,2.6-3.05c1.582,0,2.644,1.243,2.644,3.05s-1.062,3.027-2.644,3.027m.994-9.24a4.362,4.362,0,0,0-3.592,1.717v-1.582H77.372v16.6h4.021v-5.964a4.475,4.475,0,0,0,3.682,1.717c3.388,0,5.6-2.463,5.6-6.19,0-3.8-2.282-6.3-5.693-6.3M70.053,266.176h4.134V250.34H70.053Zm-7.726-11.951a4.6,4.6,0,0,0-4.7,3.1,4.035,4.035,0,0,0-4.27-3.1,4.571,4.571,0,0,0-4.54,2.756v-2.688H47.078v11.882h1.739v-5.851c0-2.575,1.468-4.36,3.908-4.427a3.073,3.073,0,0,1,3.3,3.411v6.867h1.785v-5.851c0-2.575,1.423-4.36,3.885-4.427a3.083,3.083,0,0,1,3.3,3.411v6.867h1.762v-7.319c0-2.892-1.649-4.632-4.427-4.632m-27.99,5.264a4.013,4.013,0,0,1,4.157-3.795,3.751,3.751,0,0,1,3.976,3.795Zm4.157-5.264a6.01,6.01,0,0,0,.022,12.018,6.321,6.321,0,0,0,4.79-1.965l-.972-1.016a4.986,4.986,0,0,1-3.682,1.513,4.2,4.2,0,0,1-4.315-3.886h9.714c.181-4.021-1.717-6.664-5.557-6.664m-11.34,2.711v-2.643H25.392v11.882h1.762V259.85a3.957,3.957,0,0,1,4.27-3.908v-1.718a4.449,4.449,0,0,0-4.27,2.711m-10.888-1.152a4.466,4.466,0,0,1,0,8.924,4.466,4.466,0,0,1,0-8.924m0-1.559a6.009,6.009,0,1,0,0,12.018,6.009,6.009,0,1,0,0-12.018M0,250.363v15.813H8.742V264.5H1.807V250.363Z" transform="translate(0 -128.837)" fill="#e6e6e6"/><path d="M136.99,309.17a1.9,1.9,0,0,1,1.97-1.8,1.778,1.778,0,0,1,1.885,1.8Zm1.97-2.5a2.849,2.849,0,0,0,.011,5.7,3,3,0,0,0,2.27-.931l-.46-.482a2.365,2.365,0,0,1-1.746.718,1.991,1.991,0,0,1-2.045-1.842H141.6c.085-1.906-.814-3.159-2.635-3.159m-8.779,1.285v-1.253h-.835v5.632h.835v-3a1.876,1.876,0,0,1,2.024-1.853v-.814a2.11,2.11,0,0,0-2.024,1.285M119.9,309.17a1.9,1.9,0,0,1,1.971-1.8,1.778,1.778,0,0,1,1.885,1.8Zm1.971-2.5a2.849,2.849,0,0,0,.011,5.7,3,3,0,0,0,2.27-.931l-.46-.482a2.365,2.365,0,0,1-1.746.718,1.991,1.991,0,0,1-2.045-1.842h4.605c.085-1.906-.814-3.159-2.634-3.159m-9.636,0a2.208,2.208,0,0,0-2.2,1.3V304.4h-.835v7.945h.835v-2.763a1.888,1.888,0,0,1,1.906-2.1,1.472,1.472,0,0,1,1.6,1.607v3.255h.836v-3.47a1.991,1.991,0,0,0-2.142-2.2m-13.705,0a2.228,2.228,0,0,0-2.185,1.275v-1.242h-.835v5.632h.835v-3.02a1.847,1.847,0,0,1,1.9-1.842,1.472,1.472,0,0,1,1.6,1.607v3.255h.835v-3.47a1.991,1.991,0,0,0-2.142-2.2m-11.006,5c-.793,0-1.3-.418-1.3-1.039s.493-.921,1.435-.921h1.758v.685a1.812,1.812,0,0,1-1.9,1.275m2.723.663-.011-3.727c-.011-1.2-.783-1.938-2.177-1.938a3.79,3.79,0,0,0-2.3.761l.353.589a3.067,3.067,0,0,1,1.789-.653c1,0,1.512.5,1.512,1.328v.353H87.558c-1.328.011-2.109.632-2.109,1.617a1.74,1.74,0,0,0,1.917,1.7,2.433,2.433,0,0,0,2.069-.91v.878Zm-12.38-.931A2.021,2.021,0,1,1,79.8,309.4a1.911,1.911,0,0,1-1.927,2.013m1.927-4.7v1.146a2.237,2.237,0,0,0-2.1-1.178,2.714,2.714,0,0,0,.022,5.419,2.222,2.222,0,0,0,2.077-1.178v.857a1.867,1.867,0,0,1-2.034,1.949,2.893,2.893,0,0,1-1.9-.718l-.386.61a3.736,3.736,0,0,0,2.313.825,2.588,2.588,0,0,0,2.838-2.687v-5.044Zm-11.809.707a2.117,2.117,0,1,1-2.024,2.109,1.986,1.986,0,0,1,2.024-2.109m0-.74a2.849,2.849,0,1,0,2.859,2.838,2.727,2.727,0,0,0-2.859-2.838m-8.618,5.665H60.2V304.4h-.835Zm-5.331-4.519.321-.642a3.351,3.351,0,0,0-1.8-.514c-1.028,0-1.959.461-1.959,1.531-.011,1.992,3.148,1.3,3.116,2.666-.011.568-.546.825-1.21.825a2.858,2.858,0,0,1-1.874-.717l-.321.611a3.184,3.184,0,0,0,2.163.792c1.081,0,2.067-.493,2.067-1.6,0-2.024-3.149-1.371-3.149-2.645,0-.535.482-.76,1.114-.76a2.97,2.97,0,0,1,1.531.449" transform="translate(-25.892 -156.657)" fill="#e6e6e6"/><path d="M110.091,27.116l-12.367,7.14,23.065,13.312c1.278-.151,2.581-.252,3.924-.356,4.991-.383,10.607-.816,13.719-3.734Zm-16.586,4.7,16.582-9.574,1.05.606,29.482,17.021c1.689-5.783.994-13.7-4.8-17.047L110.091,7.968,81.141,24.682Zm42.314,29.3L72.7,24.677,105.869,5.53,98.822,1.466a10.374,10.374,0,0,0-10.634,0l-37,21.36a11.152,11.152,0,0,0-2.264,1.719l-.419.439,92.119,53.184.17-.584a11.177,11.177,0,0,0,.347-2.824V70.335a10.3,10.3,0,0,0-5.317-9.215M89.29,72.547,66.228,59.232c-1.28.151-2.585.252-3.931.356-4.989.384-10.6.816-13.717,3.731L76.923,79.687ZM76.924,84.553,46.392,66.93l-.169.58a11.184,11.184,0,0,0-.346,2.824v4.424a10.3,10.3,0,0,0,5.316,9.216L76.919,98.833l28.951-16.715L93.506,74.98Zm61.587-2.736L46.376,28.623a16.679,16.679,0,0,0-.486,8.594c.709,3.593,2.509,6.852,5.3,8.465l63.115,36.442L81.141,101.27l7.047,4.064a10.389,10.389,0,0,0,10.642,0l37-21.36a11.177,11.177,0,0,0,2.263-1.719Z" transform="translate(-23.442 0)" fill="#e6e6e6" fill-rule="evenodd"/></g></svg>