<svg xmlns="http://www.w3.org/2000/svg" xmlns:xlink="http://www.w3.org/1999/xlink" width="148.754" height="171.489" viewBox="0 0 148.754 171.489"><defs><clipPath id="a"><rect width="148.754" height="171.489" fill="none"/></clipPath></defs><g clip-path="url(#a)"><path d="M144.1,261.76a4.626,4.626,0,0,0-4.532,2.9,4.307,4.307,0,0,0-4.317-2.9,4.623,4.623,0,0,0-4.22,2.3v-2.135h-4.244V274.9h4.244v-6.4c0-1.7.959-2.9,2.469-2.925a2.087,2.087,0,0,1,2.135,2.374V274.9H139.9v-6.4c0-1.7.935-2.9,2.446-2.925a2.087,2.087,0,0,1,2.134,2.374V274.9h4.269v-8.178c0-3.046-1.847-4.964-4.652-4.964m-24.844.168v6.4c0,1.7-.911,2.9-2.423,2.926a2.069,2.069,0,0,1-2.086-2.35v-6.979H110.48v8.2c0,3.021,1.822,4.964,4.628,4.964a4.581,4.581,0,0,0,4.149-2.3V274.9h4.268V261.928Zm-12.135,4.1,1.439-2.782a10.535,10.535,0,0,0-5.4-1.511c-3.046,0-5.324,1.487-5.324,4.2,0,4.485,6.691,3.6,6.691,5.372,0,.528-.576.791-1.367.791a8.428,8.428,0,0,1-4.6-1.607l-1.343,2.758a9.565,9.565,0,0,0,5.851,1.847c3.166,0,5.492-1.511,5.492-4.173.024-4.508-6.787-3.693-6.787-5.4,0-.552.5-.816,1.223-.816a9.841,9.841,0,0,1,4.125,1.319m-17.962,5.564c-1.631,0-2.757-1.3-2.757-3.213s1.127-3.238,2.757-3.238c1.679,0,2.806,1.319,2.806,3.238s-1.127,3.213-2.806,3.213m1.055-9.808a4.629,4.629,0,0,0-3.813,1.823v-1.679H82.134v17.626H86.4v-6.331a4.749,4.749,0,0,0,3.909,1.822c3.6,0,5.947-2.614,5.947-6.571,0-4.029-2.422-6.691-6.043-6.691M74.365,274.9h4.388V258.091H74.365Zm-8.2-12.686a4.883,4.883,0,0,0-4.988,3.286,4.283,4.283,0,0,0-4.532-3.286,4.852,4.852,0,0,0-4.82,2.926v-2.853H49.976V274.9h1.846v-6.211c0-2.734,1.559-4.628,4.149-4.7a3.262,3.262,0,0,1,3.5,3.622v7.29h1.894v-6.211c0-2.734,1.511-4.628,4.124-4.7a3.274,3.274,0,0,1,3.5,3.622v7.29h1.87v-7.77c0-3.07-1.751-4.917-4.7-4.917M36.45,267.8a4.26,4.26,0,0,1,4.413-4.029,3.981,3.981,0,0,1,4.22,4.029Zm4.413-5.588a6.38,6.38,0,0,0,.024,12.758,6.709,6.709,0,0,0,5.084-2.086l-1.031-1.079a5.3,5.3,0,0,1-3.909,1.607,4.459,4.459,0,0,1-4.58-4.125H46.763c.192-4.269-1.823-7.075-5.9-7.075m-12.039,2.878v-2.805h-1.87V274.9h1.87v-6.715a4.2,4.2,0,0,1,4.533-4.148v-1.823a4.722,4.722,0,0,0-4.533,2.878M17.266,263.87a4.741,4.741,0,0,1,0,9.472,4.741,4.741,0,0,1,0-9.472m0-1.655a6.379,6.379,0,1,0,0,12.758,6.379,6.379,0,1,0,0-12.758M0,258.115V274.9H9.28v-1.774H1.919V258.115Z" transform="translate(0 -125.115)" fill="#e6e6e6"/><path d="M142.326,317.215a2.019,2.019,0,0,1,2.091-1.91,1.887,1.887,0,0,1,2,1.91Zm2.091-2.649a3.024,3.024,0,0,0,.012,6.048,3.179,3.179,0,0,0,2.41-.989l-.489-.512a2.51,2.51,0,0,1-1.853.762,2.113,2.113,0,0,1-2.171-1.955h4.888c.091-2.023-.864-3.354-2.8-3.354M135.1,315.93V314.6h-.886v5.979h.886V317.4a1.991,1.991,0,0,1,2.148-1.967v-.864a2.239,2.239,0,0,0-2.148,1.364m-10.911,1.285a2.019,2.019,0,0,1,2.091-1.91,1.887,1.887,0,0,1,2,1.91Zm2.091-2.649a3.024,3.024,0,0,0,.012,6.048,3.18,3.18,0,0,0,2.41-.989l-.489-.512a2.51,2.51,0,0,1-1.853.762,2.113,2.113,0,0,1-2.171-1.955h4.888c.091-2.023-.864-3.354-2.8-3.354m-10.228,0a2.345,2.345,0,0,0-2.331,1.376v-3.8h-.887v8.435h.887v-2.933a2,2,0,0,1,2.024-2.228,1.563,1.563,0,0,1,1.694,1.7v3.456h.887V316.9a2.114,2.114,0,0,0-2.274-2.33m-14.549,0a2.365,2.365,0,0,0-2.319,1.353V314.6H98.3v5.979h.887v-3.206a1.96,1.96,0,0,1,2.012-1.955,1.563,1.563,0,0,1,1.694,1.7v3.456h.887V316.9a2.114,2.114,0,0,0-2.274-2.33m-11.684,5.309c-.841,0-1.376-.443-1.376-1.1s.522-.978,1.523-.978h1.866v.728a1.923,1.923,0,0,1-2.014,1.353m2.891.7-.012-3.956c-.011-1.273-.832-2.058-2.311-2.058a4.021,4.021,0,0,0-2.444.807l.375.626a3.256,3.256,0,0,1,1.9-.693c1.059,0,1.6.534,1.6,1.409v.375H89.851c-1.41.011-2.24.671-2.24,1.716a1.848,1.848,0,0,0,2.035,1.808,2.585,2.585,0,0,0,2.2-.966v.932Zm-13.143-.989a2.145,2.145,0,1,1,2.046-2.138,2.029,2.029,0,0,1-2.046,2.138m2.046-4.99v1.216a2.374,2.374,0,0,0-2.228-1.251,2.881,2.881,0,0,0,.023,5.752,2.359,2.359,0,0,0,2.205-1.25v.91a1.982,1.982,0,0,1-2.16,2.069,3.068,3.068,0,0,1-2.012-.762l-.409.648a3.973,3.973,0,0,0,2.456.875,2.748,2.748,0,0,0,3.013-2.853V314.6Zm-12.537.75a2.247,2.247,0,1,1-2.148,2.239,2.108,2.108,0,0,1,2.148-2.239m0-.785a3.024,3.024,0,1,0,3.035,3.013,2.895,2.895,0,0,0-3.035-3.013m-9.148,6.014h.886v-8.435h-.886Zm-5.659-4.8.341-.682a3.555,3.555,0,0,0-1.91-.546c-1.091,0-2.08.489-2.08,1.626-.012,2.114,3.342,1.375,3.308,2.83-.012.6-.58.875-1.284.875a3.035,3.035,0,0,1-1.989-.762l-.341.648a3.38,3.38,0,0,0,2.3.841c1.148,0,2.194-.523,2.194-1.694,0-2.149-3.342-1.456-3.342-2.808,0-.568.512-.807,1.182-.807a3.156,3.156,0,0,1,1.626.477" transform="translate(-24.389 -151.319)" fill="#e6e6e6"/><path d="M50.118,39.088A31.658,31.658,0,0,1,51.185,17.75l.533-1.285L53,15.932a31.656,31.656,0,0,1,21.338-1.067A31.7,31.7,0,0,1,90.2.526L91.466,0l1.269.526a31.694,31.694,0,0,1,15.857,14.34,31.655,31.655,0,0,1,21.338,1.067l1.286.533.532,1.285a31.658,31.658,0,0,1,1.067,21.338,31.7,31.7,0,0,1,14.34,15.857l.526,1.269-.526,1.269a31.7,31.7,0,0,1-14.34,15.857,31.652,31.652,0,0,1-1.067,21.338l-.533,1.285-1.286.533a31.655,31.655,0,0,1-21.338,1.067A31.692,31.692,0,0,1,92.735,111.9l-1.269.526L90.2,111.9a31.7,31.7,0,0,1-15.856-14.34A31.656,31.656,0,0,1,53,96.5l-1.285-.533-.533-1.285a31.652,31.652,0,0,1-1.067-21.338,31.7,31.7,0,0,1-14.34-15.857l-.526-1.269.526-1.269a31.694,31.694,0,0,1,14.34-15.857m73.6,4.071c.083-.134.165-.269.245-.4-.08.136-.162.27-.245.4m-19.2,45.307q.2.124.4.245-.2-.121-.4-.245M105.1,24.43c-.054-.24-.111-.477-.171-.714.06.237.117.476.171.714M123.25,69.844q.359-.08.714-.171c-.237.061-.476.117-.714.171m-45.358,18.4c.037.158.075.315.115.472C77.967,88.554,77.929,88.4,77.892,88.239ZM59.683,42.583q-.359.08-.714.171c.237-.06.476-.117.714-.171M91.466,7.267a24.989,24.989,0,0,0-10.94,10.2,25.276,25.276,0,0,0-1.379,2.819c-4.323,10.436-.8,17.327,3.079,26.685-7.973-3.3-13.294-6.377-22.4-4.413l0-.007-.13.029.13-.029c-1.757-3.312,1.493-7.261,5.38-7.256a31.53,31.53,0,0,1,5.912.562l0,0h0a31.66,31.66,0,0,1,.7-14.772,25.033,25.033,0,0,0-14.947.521,25.122,25.122,0,0,0,14.09,31.522L78.4,56.213c-7.973,3.3-13.91,4.891-18.963,12.721l-.01,0q-.236.367-.458.741.222-.375.458-.741C55.844,67.83,55.351,62.742,58.1,60a31.6,31.6,0,0,1,4.578-3.783h0a31.705,31.705,0,0,1-9.957-10.94,24.983,24.983,0,0,0-10.2,10.94,24.989,24.989,0,0,0,10.2,10.94,25.246,25.246,0,0,0,9.991,3.178h0a25.046,25.046,0,0,0,12.076-1.8l7.436-3.08h0c-3.3,7.973-6.378,13.294-4.413,22.4-3.313,1.766-7.268-1.486-7.264-5.375a31.54,31.54,0,0,1,.562-5.913l-.005.01v-.006a31.666,31.666,0,0,1-14.772-.7,25.035,25.035,0,0,0,.521,14.947,25.037,25.037,0,0,0,14.947.521h0a25.253,25.253,0,0,0,6.2-2.633A25,25,0,0,0,88.379,76.733l3.087-7.452h0c3.3,7.973,4.891,13.91,12.721,18.962l0,.011.076.049-.076-.049c-1.1,3.582-6.19,4.075-8.935,1.325A31.576,31.576,0,0,1,91.466,85h0a31.7,31.7,0,0,1-10.94,9.957,24.982,24.982,0,0,0,10.94,10.2,24.985,24.985,0,0,0,10.94-10.2,25.247,25.247,0,0,0,2.519-6.247,25.041,25.041,0,0,0-1.14-15.822l-3.08-7.436h0c7.973,3.3,13.294,6.377,22.4,4.413l0,.007.13-.028-.13.029c1.757,3.311-1.493,7.26-5.38,7.256a31.535,31.535,0,0,1-5.913-.562l0,0a31.66,31.66,0,0,1-.7,14.772,25.035,25.035,0,0,0,14.947-.521,25.035,25.035,0,0,0,.521-14.947h0A25.1,25.1,0,0,0,111.986,59.3l-7.452-3.088h0c7.973-3.3,13.91-4.891,18.963-12.721l.01,0,.049-.076-.049.076c3.582,1.1,4.075,6.189,1.325,8.935a31.543,31.543,0,0,1-4.578,3.783,31.708,31.708,0,0,1,9.957,10.94,24.982,24.982,0,0,0,10.2-10.94,24.982,24.982,0,0,0-10.2-10.94,25.146,25.146,0,0,0-22.068-1.379l-7.435,3.079h0c3.3-7.973,6.377-13.294,4.413-22.4l.008,0-.029-.131.029.131c3.312-1.757,7.261,1.493,7.256,5.379a31.53,31.53,0,0,1-.562,5.912l.006,0a31.653,31.653,0,0,1,14.769.7,25.035,25.035,0,0,0-.521-14.947,25.174,25.174,0,0,0-21.15,2.111c-8.214,4.871-10.1,11.31-13.459,19.431-3.3-7.973-4.891-13.911-12.721-18.963,1.094-3.592,6.19-4.088,8.938-1.335a31.609,31.609,0,0,1,3.783,4.578,31.7,31.7,0,0,1,10.94-9.957,24.986,24.986,0,0,0-10.94-10.2" transform="translate(-17.09)" fill="#e6e6e6"/></g></svg>