<svg xmlns="http://www.w3.org/2000/svg" xmlns:xlink="http://www.w3.org/1999/xlink" width="223.468" height="59.965" viewBox="0 0 223.468 59.965"><defs><clipPath id="a"><path d="M0-91.45H223.468v-59.964H0Z" transform="translate(0 151.414)" fill="none"/></clipPath></defs><g transform="translate(0 151.414)"><g transform="translate(0 -151.414)" clip-path="url(#a)"><g transform="translate(98.312 13.045)"><path d="M0-36.54H16.344v-4.111H4.583L6.3-41.932,16.344-56.018v-4.111H0v4.111H11.727L9.975-54.6,0-40.651Zm20.084-12.6a10.2,10.2,0,0,1,2.409-.708,15.425,15.425,0,0,1,2.78-.27q1.752,0,2.258.826a4.382,4.382,0,0,1,.27,2.713,21.953,21.953,0,0,0-4.027.152,9.868,9.868,0,0,0-3.1.91A4.993,4.993,0,0,0,18.686-43.8,4.689,4.689,0,0,0,18-41.191a5.176,5.176,0,0,0,.371,2.005,4.6,4.6,0,0,0,1.044,1.55,4.59,4.59,0,0,0,1.618,1.011,6,6,0,0,0,2.123.354,5.672,5.672,0,0,0,3.083-.758,6,6,0,0,0,1.87-1.8h.168l.708,2.325h3.572a10.606,10.606,0,0,1-.506-2.578q-.1-1.365-.084-2.814t.118-2.949q.1-1.5.1-2.982a9.485,9.485,0,0,0-.286-2.426,4.47,4.47,0,0,0-.977-1.853,4.458,4.458,0,0,0-1.87-1.2,8.813,8.813,0,0,0-2.932-.421,20.618,20.618,0,0,0-3.875.354,14.425,14.425,0,0,0-3.2.96ZM23.067-40.4a1.913,1.913,0,0,1-.556-1.466,1.507,1.507,0,0,1,.438-1.112,2.861,2.861,0,0,1,1.179-.674,7.346,7.346,0,0,1,1.7-.3,12.079,12.079,0,0,1,2.005.034v2.19a4.118,4.118,0,0,1-1.146,1.264,3.369,3.369,0,0,1-2.089.59,2.148,2.148,0,0,1-1.533-.522M40.707-60.129H36.327V-39.91a3.758,3.758,0,0,0,1.011,2.948,4.3,4.3,0,0,0,2.932.893,9.709,9.709,0,0,0,2.291-.269,8.3,8.3,0,0,0,1.651-.539l-.472-3.437a4.8,4.8,0,0,1-.96.3,4.6,4.6,0,0,1-.792.067,1.036,1.036,0,0,1-.977-.539,3.661,3.661,0,0,1-.3-1.718ZM58.466-40.854a6.843,6.843,0,0,1-1.668.859,6.852,6.852,0,0,1-2.477.421A4.2,4.2,0,0,1,51.1-40.651a4.936,4.936,0,0,1-1.1-3.2H60.117q.169-.876.253-1.685a14.886,14.886,0,0,0,.084-1.516,8.2,8.2,0,0,0-.573-3.269,5.482,5.482,0,0,0-1.516-2.089,5.815,5.815,0,0,0-2.157-1.112,9.3,9.3,0,0,0-2.494-.337,7.854,7.854,0,0,0-5.965,2.224q-2.123,2.224-2.123,6.672a10.214,10.214,0,0,0,1.887,6.521q1.887,2.376,5.965,2.376a12.026,12.026,0,0,0,3.69-.556,8.572,8.572,0,0,0,2.746-1.365Zm-2.645-8.526a4.248,4.248,0,0,1,.556,2.8H50.109a5.08,5.08,0,0,1,.994-2.746,3.067,3.067,0,0,1,2.544-1.028,2.479,2.479,0,0,1,2.173.977m16.867-4.01-2.8,8.424-.573,3.033h-.169l-.4-3-2.46-8.458H61.533l5.425,17.017h3.336l3.235-9.4.4-2.157H74.1l.438,2.123,3.4,9.435h3.235l5.19-17.017h-4.01L80.2-44.8l-.472,2.83H79.6l-.606-2.8-3.066-8.627ZM94.743-39.944a2.911,2.911,0,0,1-1.567.371,8.35,8.35,0,0,1-2.629-.421,11.625,11.625,0,0,1-2.055-.859l-1.213,3.269a10.314,10.314,0,0,0,2.544,1.062,11.985,11.985,0,0,0,3.353.455,7.147,7.147,0,0,0,4.9-1.466,5.135,5.135,0,0,0,1.634-4.027,4.62,4.62,0,0,0-.573-2.426,5.04,5.04,0,0,0-1.415-1.533,8.075,8.075,0,0,0-1.853-.96q-1.011-.37-1.853-.691a7.525,7.525,0,0,1-1.415-.691,1.12,1.12,0,0,1-.573-.977q0-1.517,1.955-1.516a8.673,8.673,0,0,1,2.392.337q1.179.337,1.954.64l.977-3.167a10.059,10.059,0,0,0-2.426-.91,13.776,13.776,0,0,0-3.471-.4,6.251,6.251,0,0,0-4.279,1.314,4.819,4.819,0,0,0-1.483,3.808,4.78,4.78,0,0,0,.573,2.477,5.344,5.344,0,0,0,1.415,1.584,6.941,6.941,0,0,0,1.853.977q1.011.354,1.853.691a6.91,6.91,0,0,1,1.415.741,1.257,1.257,0,0,1,.573,1.078,1.358,1.358,0,0,1-.59,1.247m17.843,3.4h5.021l-4.549-7.852L111.2-45.706l1.719-1.28,4.043-6.4h-4.818l-3.842,6.706-1.011.472V-60.129h-4.38V-36.54h4.38v-6.976h1.18Zm7.616,0h4.381V-53.389H120.2Zm.084-19.966a2.874,2.874,0,0,0,2.005.657,3.141,3.141,0,0,0,2.072-.657,2.042,2.042,0,0,0,.792-1.634,2.139,2.139,0,0,0-.792-1.668,3.042,3.042,0,0,0-2.072-.691,2.788,2.788,0,0,0-2.005.691,2.219,2.219,0,0,0-.725,1.668,2.115,2.115,0,0,0,.725,1.634" transform="translate(0 60.5)" fill="#fff"/></g><g transform="translate(98.312 42.751)"><path d="M0-9.578H1.2v-2.1c.029.006.077.011.144.017s.135.01.205.013.136,0,.2,0h.14a3.369,3.369,0,0,0,.876-.113,2.146,2.146,0,0,0,.754-.367,1.852,1.852,0,0,0,.532-.65,2.136,2.136,0,0,0,.2-.972,2.039,2.039,0,0,0-.231-1.034,1.72,1.72,0,0,0-.6-.619,2.267,2.267,0,0,0-.824-.3,5.69,5.69,0,0,0-.912-.074q-.436,0-.877.039T0-15.623ZM2.224-14.7a1.078,1.078,0,0,1,.388.157.864.864,0,0,1,.275.3.969.969,0,0,1,.1.476,1.193,1.193,0,0,1-.109.549.842.842,0,0,1-.292.327,1.163,1.163,0,0,1-.415.162,2.522,2.522,0,0,1-.467.044H1.6c-.05,0-.1,0-.153,0s-.1-.007-.148-.013a1.036,1.036,0,0,1-.1-.017V-14.7q.1-.017.253-.03c.1-.009.215-.013.331-.013a2.25,2.25,0,0,1,.445.044m5.129.759a1.657,1.657,0,0,0-.515-.1,1.02,1.02,0,0,0-.593.174,1.19,1.19,0,0,0-.4.5H5.809l-.131-.576H4.8v4.361H5.932V-12.4a.777.777,0,0,1,.274-.415.8.8,0,0,1,.51-.161,1.481,1.481,0,0,1,.488.1ZM7.72-9.578h3.419v-.96H9l.436-.34,1.7-2.1v-.96H7.72v.96H9.883l-.445.375L7.72-10.538Zm7.353-1.116a1.773,1.773,0,0,1-.432.222,1.771,1.771,0,0,1-.641.109,1.086,1.086,0,0,1-.833-.279,1.279,1.279,0,0,1-.284-.829H15.5c.029-.151.051-.3.065-.436a3.767,3.767,0,0,0,.022-.392,2.126,2.126,0,0,0-.148-.846,1.42,1.42,0,0,0-.392-.541,1.5,1.5,0,0,0-.558-.288,2.4,2.4,0,0,0-.646-.087,2.034,2.034,0,0,0-1.544.575,2.417,2.417,0,0,0-.549,1.727,2.646,2.646,0,0,0,.488,1.688,1.853,1.853,0,0,0,1.544.615,3.119,3.119,0,0,0,.955-.144,2.223,2.223,0,0,0,.711-.353ZM14.389-12.9a1.1,1.1,0,0,1,.144.724H12.91a1.316,1.316,0,0,1,.257-.711.794.794,0,0,1,.659-.266.642.642,0,0,1,.563.253m5.7,3.323V-12.44a1,1,0,0,1,.266-.453.685.685,0,0,1,.484-.166.467.467,0,0,1,.484.257,2.079,2.079,0,0,1,.109.772v2.451h1.134V-12.2a4.344,4.344,0,0,0-.078-.907,1.47,1.47,0,0,0-.24-.571.858.858,0,0,0-.419-.3,1.955,1.955,0,0,0-.624-.087,1.382,1.382,0,0,0-.759.2,1.585,1.585,0,0,0-.515.541,1.1,1.1,0,0,0-.414-.571,1.252,1.252,0,0,0-.685-.17,1.4,1.4,0,0,0-.8.209,2,2,0,0,0-.51.489h-.035l-.131-.576h-.881v4.361h1.134v-2.9a1.031,1.031,0,0,1,.279-.414.7.7,0,0,1,.48-.161.463.463,0,0,1,.471.253,2.293,2.293,0,0,1,.113.855v2.373Zm4.283-4.361H23.011l1.823,4.361a1.156,1.156,0,0,1-.283.615.577.577,0,0,1-.389.17.7.7,0,0,1-.261-.052l-.21.907a1.511,1.511,0,0,0,.724.148.877.877,0,0,0,.528-.161,1.581,1.581,0,0,0,.406-.458,4.063,4.063,0,0,0,.336-.7q.153-.405.318-.894l1.326-3.934H26.16L25.5-11.5l-.113.689h-.052l-.157-.68ZM29.5-10.46a.752.752,0,0,1-.406.1,2.16,2.16,0,0,1-.68-.109,3.014,3.014,0,0,1-.532-.222l-.314.846a2.664,2.664,0,0,0,.659.275,3.105,3.105,0,0,0,.868.118,1.85,1.85,0,0,0,1.269-.379,1.329,1.329,0,0,0,.423-1.042,1.2,1.2,0,0,0-.148-.628,1.308,1.308,0,0,0-.366-.4,2.094,2.094,0,0,0-.48-.249q-.261-.1-.48-.179a1.939,1.939,0,0,1-.366-.179.29.29,0,0,1-.149-.253q0-.393.506-.393a2.241,2.241,0,0,1,.619.088q.305.087.506.166l.253-.82a2.588,2.588,0,0,0-.628-.236,3.568,3.568,0,0,0-.9-.1,1.618,1.618,0,0,0-1.108.34,1.247,1.247,0,0,0-.384.986,1.238,1.238,0,0,0,.148.641,1.392,1.392,0,0,0,.366.41,1.793,1.793,0,0,0,.48.253q.261.092.48.179a1.779,1.779,0,0,1,.366.192.325.325,0,0,1,.149.279.351.351,0,0,1-.153.323m1.67-.741.689-.453v1.2a.973.973,0,0,0,.262.764,1.112,1.112,0,0,0,.759.231,2.5,2.5,0,0,0,.593-.07,2.171,2.171,0,0,0,.427-.139l-.122-.89a1.226,1.226,0,0,1-.249.078,1.168,1.168,0,0,1-.2.017.268.268,0,0,1-.253-.139.95.95,0,0,1-.078-.445V-12.4l.837-.55v-1.09l-.837.558v-2.207H31.856v2.966l-.689.462Zm3.559-1.64a2.638,2.638,0,0,1,.624-.183,3.968,3.968,0,0,1,.72-.07q.454,0,.585.213a1.134,1.134,0,0,1,.07.7,5.694,5.694,0,0,0-1.042.039,2.566,2.566,0,0,0-.8.236,1.292,1.292,0,0,0-.515.445,1.214,1.214,0,0,0-.179.676,1.339,1.339,0,0,0,.1.519,1.186,1.186,0,0,0,.27.4,1.188,1.188,0,0,0,.419.262,1.558,1.558,0,0,0,.55.091,1.47,1.47,0,0,0,.8-.2,1.556,1.556,0,0,0,.484-.467h.044l.183.6h.925a2.746,2.746,0,0,1-.131-.667q-.026-.353-.022-.728t.031-.763q.026-.389.026-.772a2.449,2.449,0,0,0-.074-.628,1.157,1.157,0,0,0-.253-.48,1.153,1.153,0,0,0-.484-.31,2.284,2.284,0,0,0-.759-.109,5.345,5.345,0,0,0-1,.091,3.707,3.707,0,0,0-.828.249Zm.772,2.264a.494.494,0,0,1-.144-.379.39.39,0,0,1,.114-.288.733.733,0,0,1,.3-.174,1.9,1.9,0,0,1,.441-.079,3.135,3.135,0,0,1,.519.009v.567a1.06,1.06,0,0,1-.3.327.872.872,0,0,1-.541.152.555.555,0,0,1-.4-.135m5.717-3.363-.724,2.181-.148.785H40.3l-.1-.776-.637-2.19h-1.23l1.4,4.405H40.6l.838-2.434.1-.558h.044l.114.55.881,2.442h.838l1.343-4.405H43.719l-.558,2.224-.122.733H43l-.157-.724-.794-2.233ZM47-9.578h4.23v-1.064H48.185l.445-.331,2.6-3.646v-1.064H47v1.064h3.036l-.454.366L47-10.642Zm5.2-3.262a2.638,2.638,0,0,1,.624-.183,3.968,3.968,0,0,1,.72-.07q.454,0,.585.213a1.134,1.134,0,0,1,.07.7,5.692,5.692,0,0,0-1.042.039,2.566,2.566,0,0,0-.8.236,1.292,1.292,0,0,0-.515.445,1.214,1.214,0,0,0-.179.676,1.339,1.339,0,0,0,.1.519,1.186,1.186,0,0,0,.27.4,1.188,1.188,0,0,0,.419.262,1.557,1.557,0,0,0,.55.091,1.47,1.47,0,0,0,.8-.2,1.554,1.554,0,0,0,.484-.467h.044l.183.6h.925a2.746,2.746,0,0,1-.131-.667q-.026-.353-.022-.728t.03-.763q.026-.389.027-.772a2.449,2.449,0,0,0-.074-.628,1.161,1.161,0,0,0-.253-.48,1.156,1.156,0,0,0-.484-.31,2.284,2.284,0,0,0-.759-.109,5.345,5.345,0,0,0-1,.091,3.717,3.717,0,0,0-.829.249Zm.772,2.264a.5.5,0,0,1-.144-.379.39.39,0,0,1,.113-.288.737.737,0,0,1,.305-.174,1.9,1.9,0,0,1,.441-.079,3.135,3.135,0,0,1,.519.009v.567a1.065,1.065,0,0,1-.3.327.872.872,0,0,1-.541.152.557.557,0,0,1-.4-.135m4.567-5.107H56.4v5.234a.974.974,0,0,0,.262.764,1.112,1.112,0,0,0,.759.231,2.5,2.5,0,0,0,.593-.07,2.171,2.171,0,0,0,.427-.139l-.122-.89a1.226,1.226,0,0,1-.249.078,1.168,1.168,0,0,1-.2.017.268.268,0,0,1-.253-.139.95.95,0,0,1-.078-.445Zm4.6,4.99a1.77,1.77,0,0,1-.432.222,1.771,1.771,0,0,1-.641.109,1.085,1.085,0,0,1-.833-.279,1.277,1.277,0,0,1-.284-.829H62.56c.029-.151.051-.3.065-.436a3.879,3.879,0,0,0,.022-.392,2.119,2.119,0,0,0-.149-.846,1.42,1.42,0,0,0-.392-.541,1.5,1.5,0,0,0-.558-.288,2.4,2.4,0,0,0-.645-.087,2.033,2.033,0,0,0-1.544.575,2.417,2.417,0,0,0-.55,1.727,2.643,2.643,0,0,0,.489,1.688,1.853,1.853,0,0,0,1.544.615A3.115,3.115,0,0,0,61.8-9.6a2.219,2.219,0,0,0,.711-.353ZM61.448-12.9a1.1,1.1,0,0,1,.144.724H59.97a1.313,1.313,0,0,1,.257-.711.794.794,0,0,1,.659-.266.641.641,0,0,1,.562.253m4.366-1.038-.724,2.181-.148.785H64.9l-.1-.776-.637-2.19h-1.23l1.4,4.405h.863l.838-2.434.1-.558h.044l.114.55.881,2.442h.838l1.343-4.405H68.317l-.558,2.224-.122.733H67.6l-.157-.724-.794-2.233Zm5.709,3.48a.752.752,0,0,1-.406.1,2.158,2.158,0,0,1-.68-.109,3.014,3.014,0,0,1-.532-.222l-.314.846a2.664,2.664,0,0,0,.659.275,3.1,3.1,0,0,0,.868.118,1.85,1.85,0,0,0,1.269-.379,1.329,1.329,0,0,0,.423-1.042,1.2,1.2,0,0,0-.148-.628,1.3,1.3,0,0,0-.367-.4,2.083,2.083,0,0,0-.48-.249q-.262-.1-.48-.179a1.955,1.955,0,0,1-.367-.179.29.29,0,0,1-.148-.253q0-.393.506-.393a2.241,2.241,0,0,1,.619.088q.305.087.506.166l.253-.82a2.588,2.588,0,0,0-.628-.236,3.568,3.568,0,0,0-.9-.1,1.618,1.618,0,0,0-1.108.34,1.246,1.246,0,0,0-.384.986,1.238,1.238,0,0,0,.148.641,1.392,1.392,0,0,0,.366.41,1.793,1.793,0,0,0,.48.253q.261.092.48.179a1.779,1.779,0,0,1,.366.192.325.325,0,0,1,.149.279.351.351,0,0,1-.153.323m4.619.881h1.3l-1.178-2.032-.48-.34.445-.331,1.047-1.657H76.028L75.034-12.2l-.261.122v-3.6H73.638v6.106h1.134v-1.805h.305Zm1.971,0h1.134V-13.94H78.113Zm.022-5.168a.744.744,0,0,0,.519.17.814.814,0,0,0,.537-.17.529.529,0,0,0,.2-.423.553.553,0,0,0-.2-.432.787.787,0,0,0-.537-.179.72.72,0,0,0-.519.179.575.575,0,0,0-.188.432.549.549,0,0,0,.188.423m4.706,5.168h1.134V-13.94H82.841Zm.022-5.168a.746.746,0,0,0,.519.17.814.814,0,0,0,.537-.17.53.53,0,0,0,.2-.423.555.555,0,0,0-.2-.432.788.788,0,0,0-.537-.179.722.722,0,0,0-.519.179.575.575,0,0,0-.187.432.548.548,0,0,0,.187.423m5.186-.938h-1.3l1.675,6.15h.846l1.082-3.384.148-.942h.044l.149.933,1.09,3.393h.8l1.684-6.15H93.055l-.742,3.393-.131,1.1h-.035l-.122-1.082-1.047-3.411h-.785L89.13-12.291l-.122,1.1h-.035l-.113-1.082Zm8.038,5.225a.753.753,0,0,1-.406.1,2.156,2.156,0,0,1-.68-.109,3,3,0,0,1-.532-.222l-.314.846a2.657,2.657,0,0,0,.659.275,3.1,3.1,0,0,0,.868.118,1.848,1.848,0,0,0,1.269-.379,1.329,1.329,0,0,0,.423-1.042,1.2,1.2,0,0,0-.149-.628,1.3,1.3,0,0,0-.366-.4,2.091,2.091,0,0,0-.48-.249q-.262-.1-.48-.179a1.963,1.963,0,0,1-.366-.179.289.289,0,0,1-.148-.253q0-.393.506-.393a2.241,2.241,0,0,1,.619.088q.305.087.506.166l.253-.82a2.582,2.582,0,0,0-.628-.236,3.563,3.563,0,0,0-.9-.1,1.619,1.619,0,0,0-1.108.34,1.247,1.247,0,0,0-.384.986,1.238,1.238,0,0,0,.149.641,1.386,1.386,0,0,0,.366.41,1.8,1.8,0,0,0,.48.253q.262.092.48.179a1.779,1.779,0,0,1,.366.192.326.326,0,0,1,.148.279.351.351,0,0,1-.152.323M98.2-7.834h1.134V-9.622a1.553,1.553,0,0,0,.349.126,2.086,2.086,0,0,0,.445.039,2.064,2.064,0,0,0,.85-.166,1.7,1.7,0,0,0,.628-.48,2.12,2.12,0,0,0,.388-.763,3.588,3.588,0,0,0,.131-1.007,2.7,2.7,0,0,0-.41-1.67,1.472,1.472,0,0,0-1.23-.519,1.655,1.655,0,0,0-.754.157,1.444,1.444,0,0,0-.537.489h-.035l-.131-.524H98.2Zm2.565-4.955a1.719,1.719,0,0,1,.192.89,2.025,2.025,0,0,1-.244,1.138.839.839,0,0,1-.733.345,1.048,1.048,0,0,1-.379-.057,1.047,1.047,0,0,1-.266-.152V-12.44a1.085,1.085,0,0,1,.292-.5.757.757,0,0,1,.519-.166.671.671,0,0,1,.619.314m2.15,1.971a1.958,1.958,0,0,0,.384.728,1.732,1.732,0,0,0,.641.467,2.277,2.277,0,0,0,.907.166,1.928,1.928,0,0,0,1.513-.6,2.469,2.469,0,0,0,.537-1.705,3.308,3.308,0,0,0-.127-.942,1.992,1.992,0,0,0-.379-.728,1.7,1.7,0,0,0-.637-.467,2.275,2.275,0,0,0-.907-.166,1.944,1.944,0,0,0-1.518.6,2.457,2.457,0,0,0-.541,1.706,3.307,3.307,0,0,0,.126.942m1.278-1.971a.772.772,0,0,1,.654-.314.711.711,0,0,1,.68.371,2.044,2.044,0,0,1,.2.973,1.867,1.867,0,0,1-.218,1.021.746.746,0,0,1-.663.323.785.785,0,0,1-.406-.1.753.753,0,0,1-.274-.284,1.471,1.471,0,0,1-.157-.427,2.541,2.541,0,0,1-.052-.532,1.744,1.744,0,0,1,.236-1.03m.244-1.727h.646l.968-1.082v-.262H104.9Zm4.5-1.169h-1.134v5.234a.973.973,0,0,0,.262.764,1.112,1.112,0,0,0,.759.231,2.5,2.5,0,0,0,.593-.07,2.171,2.171,0,0,0,.427-.139l-.122-.89a1.226,1.226,0,0,1-.249.078,1.168,1.168,0,0,1-.2.017.268.268,0,0,1-.253-.139.949.949,0,0,1-.078-.445Zm5.286,6.106v-2.713a3.546,3.546,0,0,0-.087-.851,1.309,1.309,0,0,0-.262-.545.982.982,0,0,0-.427-.288,1.761,1.761,0,0,0-.576-.087,1.58,1.58,0,0,0-.855.209,1.878,1.878,0,0,0-.532.489h-.035l-.131-.576h-.9v4.361h1.134V-12.4a1.043,1.043,0,0,1,.318-.467.818.818,0,0,1,.545-.187.571.571,0,0,1,.519.235,1.463,1.463,0,0,1,.153.768v2.477Zm1.143,0H116.5V-13.94h-1.134Zm.022-5.168a.746.746,0,0,0,.519.17.814.814,0,0,0,.537-.17.53.53,0,0,0,.2-.423.555.555,0,0,0-.2-.432.788.788,0,0,0-.537-.179.722.722,0,0,0-.519.179.575.575,0,0,0-.187.432.548.548,0,0,0,.187.423m5.134,4.034a1.713,1.713,0,0,1-.358.179,1.415,1.415,0,0,1-.489.074.992.992,0,0,1-.458-.1.855.855,0,0,1-.318-.275,1.252,1.252,0,0,1-.183-.41,2.041,2.041,0,0,1-.061-.514,1.6,1.6,0,0,1,.244-.99.856.856,0,0,1,.715-.31,1.748,1.748,0,0,1,.449.052,2.294,2.294,0,0,1,.4.148l.27-.925a2.633,2.633,0,0,0-.528-.2,3.078,3.078,0,0,0-.772-.078,1.777,1.777,0,0,0-1.448.6,2.6,2.6,0,0,0-.5,1.706,4.119,4.119,0,0,0,.1.942,1.921,1.921,0,0,0,.327.728,1.508,1.508,0,0,0,.589.467,2.119,2.119,0,0,0,.885.166,2.911,2.911,0,0,0,.764-.1,1.9,1.9,0,0,0,.632-.292ZM122.2-13.94h-1.361l1.823,4.361a1.156,1.156,0,0,1-.284.615.576.576,0,0,1-.388.17.7.7,0,0,1-.262-.052l-.209.907a1.51,1.51,0,0,0,.724.148.875.875,0,0,0,.528-.161,1.575,1.575,0,0,0,.406-.458,4.062,4.062,0,0,0,.336-.7q.152-.405.318-.894l1.326-3.934h-1.169l-.663,2.442-.113.689h-.053l-.157-.68Z" transform="translate(0 15.859)" fill="#fff"/></g></g><g transform="translate(57.743 -138.503)"><path d="M0-11.549l23.208,39.48h8.949L4.5-19.122Z" transform="translate(0 19.122)" fill="#fff"/></g><g transform="translate(49.201 -124.127)"><path d="M0-11.516,14.765,13.611H23.7L4.491-19.067Z" transform="translate(0 19.067)" fill="#fff"/></g><g transform="translate(26.746 -151.414)"><path d="M-42.588,0-47.1,7.551-70.513,46.737h8.971l18.888-31.624,4.513-7.551Z" transform="translate(70.513)" fill="#fff"/></g><g transform="translate(0 -149.926)"><path d="M0,0V7.705H30.215L0,58.477H56.622l-4.265-7.706H13.552L43.767,0Z" fill="#fff"/></g></g></svg>